<svg width="24" height="24" viewBox="0 0 24 24" fill="none" xmlns="http://www.w3.org/2000/svg">
<path d="M17.34 3.46C17.1027 3.46 16.8707 3.53038 16.6733 3.66224C16.476 3.79409 16.3222 3.98151 16.2313 4.20078C16.1405 4.42005 16.1168 4.66133 16.1631 4.89411C16.2094 5.12689 16.3236 5.34071 16.4915 5.50853C16.6593 5.67635 16.8731 5.79064 17.1059 5.83694C17.3387 5.88324 17.5799 5.85948 17.7992 5.76866C18.0185 5.67783 18.2059 5.52402 18.3378 5.32668C18.4696 5.12935 18.54 4.89734 18.54 4.66C18.54 4.34174 18.4136 4.03652 18.1885 3.81147C17.9635 3.58643 17.6583 3.46 17.34 3.46ZM21.94 5.88C21.9206 5.0503 21.7652 4.2294 21.48 3.45C21.2257 2.78313 20.83 2.17928 20.32 1.68C19.8248 1.16743 19.2196 0.774176 18.55 0.53C17.7727 0.236161 16.9508 0.07721 16.12 0.0599999C15.06 -5.58794e-08 14.72 0 12 0C9.28 0 8.94 -5.58794e-08 7.88 0.0599999C7.04915 0.07721 6.22734 0.236161 5.45 0.53C4.78168 0.776649 4.17693 1.16956 3.68 1.68C3.16743 2.17518 2.77418 2.78044 2.53 3.45C2.23616 4.22734 2.07721 5.04915 2.06 5.88C2 6.94 2 7.28 2 10C2 12.72 2 13.06 2.06 14.12C2.07721 14.9508 2.23616 15.7727 2.53 16.55C2.77418 17.2196 3.16743 17.8248 3.68 18.32C4.17693 18.8304 4.78168 19.2234 5.45 19.47C6.22734 19.7638 7.04915 19.9228 7.88 19.94C8.94 20 9.28 20 12 20C14.72 20 15.06 20 16.12 19.94C16.9508 19.9228 17.7727 19.7638 18.55 19.47C19.2196 19.2258 19.8248 18.8326 20.32 18.32C20.8322 17.8226 21.2283 17.2182 21.48 16.55C21.7652 15.7706 21.9206 14.9497 21.94 14.12C21.94 13.06 22 12.72 22 10C22 7.28 22 6.94 21.94 5.88ZM20.14 14C20.1327 14.6348 20.0178 15.2637 19.8 15.86C19.6403 16.2952 19.3839 16.6884 19.05 17.01C18.7256 17.3405 18.3332 17.5964 17.9 17.76C17.3037 17.9778 16.6748 18.0927 16.04 18.1C15.04 18.15 14.67 18.16 12.04 18.16C9.41 18.16 9.04 18.16 8.04 18.1C7.38089 18.1123 6.72459 18.0109 6.1 17.8C5.68578 17.6281 5.31136 17.3728 5 17.05C4.66809 16.7287 4.41484 16.3352 4.26 15.9C4.01586 15.2952 3.88044 14.6519 3.86 14C3.86 13 3.8 12.63 3.8 10C3.8 7.37 3.8 7 3.86 6C3.86448 5.35106 3.98295 4.70795 4.21 4.1C4.38605 3.67791 4.65627 3.30166 5 3C5.30381 2.65617 5.67929 2.3831 6.1 2.2C6.70955 1.98004 7.352 1.86508 8 1.86C9 1.86 9.37 1.8 12 1.8C14.63 1.8 15 1.8 16 1.86C16.6348 1.86728 17.2637 1.98225 17.86 2.2C18.3144 2.36865 18.7223 2.64285 19.05 3C19.3777 3.30718 19.6338 3.68273 19.8 4.1C20.0223 4.70893 20.1373 5.35178 20.14 6C20.19 7 20.2 7.37 20.2 10C20.2 12.63 20.19 13 20.14 14ZM12 4.87C10.9858 4.87198 9.99496 5.17453 9.15265 5.73942C8.31035 6.30431 7.65438 7.1062 7.26763 8.04375C6.88089 8.98131 6.78072 10.0125 6.97979 11.0069C7.17886 12.0014 7.66824 12.9145 8.38608 13.631C9.10392 14.3474 10.018 14.835 11.0129 15.0321C12.0077 15.2293 13.0387 15.1271 13.9755 14.7385C14.9123 14.35 15.7129 13.6924 16.2761 12.849C16.8394 12.0056 17.14 11.0142 17.14 10C17.1413 9.3251 17.0092 8.65661 16.7512 8.03296C16.4933 7.40931 16.1146 6.84281 15.6369 6.36605C15.1592 5.88929 14.5919 5.51168 13.9678 5.25493C13.3436 4.99818 12.6749 4.86736 12 4.87ZM12 13.33C11.3414 13.33 10.6976 13.1347 10.15 12.7688C9.60234 12.4029 9.17552 11.8828 8.92348 11.2743C8.67144 10.6659 8.6055 9.99631 8.73398 9.35035C8.86247 8.70439 9.17963 8.11104 9.64533 7.64533C10.111 7.17963 10.7044 6.86247 11.3503 6.73398C11.9963 6.6055 12.6659 6.67144 13.2743 6.92348C13.8828 7.17552 14.4029 7.60234 14.7688 8.14995C15.1347 8.69757 15.33 9.34139 15.33 10C15.33 10.4373 15.2439 10.8703 15.0765 11.2743C14.9092 11.6784 14.6639 12.0454 14.3547 12.3547C14.0454 12.6639 13.6784 12.9092 13.2743 13.0765C12.8703 13.2439 12.4373 13.33 12 13.33Z" fill="white"/>
</svg>
