<svg width="26" height="28" viewBox="0 0 26 28" fill="none" xmlns="http://www.w3.org/2000/svg">
<path d="M5.44309 3.91212C5.74078 3.75892 6.06104 3.63863 6.38408 3.5565C6.77233 2.36708 8.04728 1.29531 8.78166 1.20436C9.52048 1.11112 10.0043 4.03878 10.0043 4.03878C10.473 4.32702 10.8996 4.6864 11.1412 5.15584C12.0391 6.90058 10.8726 9.03481 8.66427 10.1713C6.45598 11.3078 4.06137 11.0557 3.14333 9.27182C2.89168 8.78282 2.88232 8.21861 2.8951 7.69744C2.8951 7.69744 0.762826 5.61813 1.26367 5.07339C1.76451 4.52865 3.40719 4.08406 4.60074 4.45943C4.86185 4.25039 5.14438 4.06682 5.44309 3.91212Z" fill="white"/>
<path d="M5.47766 8.34757L5.57833 8.54317L5.47766 8.34757Z" fill="white"/>
<path d="M9.03227 6.51825L9.13293 6.71385L9.03227 6.51825Z" fill="white"/>
<path d="M7.3747 8.4846L8.04119 8.1416L7.85894 8.6065L7.3747 8.4846Z" fill="white"/>
<path d="M5.47766 8.34757L5.57833 8.54317M9.03227 6.51825L9.13293 6.71385M5.44309 3.91212C5.74078 3.75892 6.06104 3.63863 6.38408 3.5565C6.77233 2.36708 8.04728 1.29531 8.78166 1.20436C9.52048 1.11112 10.0043 4.03878 10.0043 4.03878C10.473 4.32702 10.8996 4.6864 11.1412 5.15584C12.0391 6.90058 10.8726 9.03481 8.66427 10.1713C6.45598 11.3078 4.06137 11.0557 3.14333 9.27182C2.89168 8.78282 2.88232 8.21861 2.8951 7.69744C2.8951 7.69744 0.762826 5.61813 1.26367 5.07339C1.76451 4.52865 3.40719 4.08406 4.60074 4.45943C4.86185 4.25039 5.14438 4.06682 5.44309 3.91212ZM7.3747 8.4846L8.04119 8.1416L7.85894 8.6065L7.3747 8.4846Z" stroke="white" stroke-width="2" stroke-linecap="round" stroke-linejoin="round"/>
<path fill-rule="evenodd" clip-rule="evenodd" d="M7 9H22V10H23V12.6512C24.258 13.3107 25 14.1223 25 15C25 15.8777 24.258 16.6893 23 17.3488V18H22V26H7V18H6V17.3488C4.74198 16.6893 4 15.8777 4 15C4 14.1223 4.74198 13.3107 6 12.6512V10H7V9Z" fill="black"/>
<path d="M23.8333 18.7104V25.75H24.875V27.8333H4.04167V25.75H5.08333V18.7104C4.44205 18.2824 3.91637 17.7026 3.55294 17.0227C3.18951 16.3427 2.99958 15.5835 3 14.8125C3 13.951 3.23333 13.1208 3.65938 12.4135L6.48438 7.52083C6.5758 7.36248 6.70729 7.23099 6.86564 7.13956C7.02399 7.04814 7.20361 7 7.38646 7H21.5313C21.7141 7 21.8937 7.04814 22.0521 7.13956C22.2104 7.23099 22.3419 7.36248 22.4333 7.52083L25.2479 12.3979C25.8693 13.4301 26.0691 14.662 25.8056 15.8376C25.5422 17.0133 24.8358 18.0422 23.8333 18.7104ZM21.75 19.4708C21.0338 19.5512 20.3087 19.4651 19.6312 19.2194C18.9536 18.9737 18.342 18.5749 17.8438 18.0542C17.4065 18.5115 16.881 18.8755 16.2992 19.1242C15.7173 19.3729 15.0911 19.5011 14.4583 19.501C13.8257 19.5014 13.1996 19.3735 12.6177 19.1252C12.0359 18.8769 11.5104 18.5132 11.0729 18.0563C10.5746 18.5768 9.96289 18.9754 9.28537 19.2209C8.60785 19.4665 7.8828 19.5524 7.16667 19.4719V25.75H21.75V19.4719V19.4708ZM7.98854 9.08333L5.45417 13.4719C5.20789 14.0804 5.2005 14.7594 5.43347 15.3731C5.66644 15.9868 6.12258 16.4899 6.71061 16.7817C7.29863 17.0734 7.97515 17.1324 8.60477 16.9467C9.23439 16.761 9.77066 16.3444 10.1063 15.7802C10.4552 14.9083 11.6896 14.9083 12.0396 15.7802C12.2326 16.264 12.5663 16.6787 12.9974 16.9709C13.4286 17.2631 13.9375 17.4193 14.4583 17.4193C14.9792 17.4193 15.4881 17.2631 15.9192 16.9709C16.3504 16.6787 16.6841 16.264 16.8771 15.7802C17.226 14.9083 18.4604 14.9083 18.8104 15.7802C18.9456 16.113 19.1482 16.4142 19.4054 16.6649C19.6625 16.9156 19.9688 17.1104 20.3049 17.237C20.641 17.3636 20.9997 17.4194 21.3584 17.4007C21.7171 17.3821 22.068 17.2894 22.3892 17.1286C22.7103 16.9677 22.9947 16.7422 23.2245 16.4662C23.4543 16.1901 23.6245 15.8695 23.7245 15.5246C23.8244 15.1796 23.8519 14.8176 23.8052 14.4615C23.7585 14.1054 23.6386 13.7628 23.4531 13.4552L20.9271 9.08333H7.98958H7.98854Z" fill="white"/>
</svg>
